# xmcd
#
# Track frame offsets: 
#        150
#        8494
#        15870
#        29140
#        40013
#        53318
#        63460
#        76472
#        91971
#        107553
#        119959
#        132908
#        158438
#        171527
#
# Disc length: 2539 seconds
#
# Revision: 0
# Processed by: cddbd v1.4b42PL1 Copyright (c) Steve Scherf et al.
# Submitted via: ExactAudioCopy v0.90a11
#
DISCID=a709e90e
DTITLE=J.J. Cale - Universal Amphitheatre - Universal City, CA - 06.01
DTITLE=96
DYEAR=1900
DGENRE=
TTITLE0=Cajun Moon
TTITLE1=Closer To You
TTITLE2=Louisiana Women
TTITLE3=Low Down
TTITLE4=Thirteen Days
TTITLE5=Hold On
TTITLE6=Don't Cry Sister
TTITLE7=Hard Times
TTITLE8=Instrumental
TTITLE9=Everlovin' Woman
TTITLE10=Artificial Paradise
TTITLE11=Mama Don't
TTITLE12=Cocaine
TTITLE13=Crazy Mama
EXTD=
EXTT0=
EXTT1=
EXTT2=
EXTT3=
EXTT4=
EXTT5=
EXTT6=
EXTT7=
EXTT8=
EXTT9=
EXTT10=
EXTT11=
EXTT12=
EXTT13=
PLAYORDER=
